# xmcd CD database file
#
# Track frame offsets:
#	150
#	18757
#	43532
#	63005
#	81940
#	111607
#	127932
#	148062
#	167460
#	182057
#	190177
#
# Disc length: 2910 seconds
#
# Revision: 0
# Processed by: cddbd v1.5PL3 Copyright (c) Steve Scherf et al.
# Submitted via: CDex 1.50beta8
#
DISCID=8c0b5c0b
DTITLE=堂島孝平 - 陽だまりの中に
DYEAR=1996
DGENRE=Rock
TTITLE0=ゴー・ゴー・タンバリン！！
TTITLE1=裸の心へ
TTITLE2=サニーサイド
TTITLE3=ハンモック
TTITLE4=さよなら
TTITLE5=てのひら
TTITLE6=君は僕よりも
TTITLE7=ペーパームーン
TTITLE8=フリスビー
TTITLE9=バード
TTITLE10=白の世界
EXTD=YEAR: 1996
EXTT0=
EXTT1=
EXTT2=
EXTT3=
EXTT4=
EXTT5=
EXTT6=
EXTT7=
EXTT8=
EXTT9=
EXTT10=
PLAYORDER=
